<?xml version="1.0" encoding="UTF-8" standalone="no"?>
<svg
   width="176.37306mm"
   height="176.37306mm"
   viewBox="0 0 176.37307 176.37306"
   version="1.1"
   id="svg8"
   inkscape:version="1.1.1 (3bf5ae0d25, 2021-09-20)"
   sodipodi:docname="neoteroi.svg"
   inkscape:export-filename="/home/ra/pictures/neoteroi/neoteroi.png"
   inkscape:export-xdpi="200"
   inkscape:export-ydpi="200"
   xmlns:inkscape="http://www.inkscape.org/namespaces/inkscape"
   xmlns:sodipodi="http://sodipodi.sourceforge.net/DTD/sodipodi-0.dtd"
   xmlns="http://www.w3.org/2000/svg"
   xmlns:svg="http://www.w3.org/2000/svg"
   xmlns:rdf="http://www.w3.org/1999/02/22-rdf-syntax-ns#"
   xmlns:cc="http://creativecommons.org/ns#"
   xmlns:dc="http://purl.org/dc/elements/1.1/">
  <defs
     id="defs2" />
  <sodipodi:namedview
     id="base"
     pagecolor="#ffffff"
     bordercolor="#666666"
     borderopacity="1.0"
     inkscape:pageopacity="0"
     inkscape:pageshadow="2"
     inkscape:zoom="1.4094391"
     inkscape:cx="1033.7446"
     inkscape:cy="603.78629"
     inkscape:document-units="mm"
     inkscape:current-layer="layer1"
     inkscape:document-rotation="0"
     showgrid="false"
     inkscape:window-width="3840"
     inkscape:window-height="2066"
     inkscape:window-x="-11"
     inkscape:window-y="-11"
     inkscape:window-maximized="1"
     fit-margin-left="5"
     fit-margin-top="5"
     fit-margin-right="5"
     fit-margin-bottom="5"
     lock-margins="true"
     objecttolerance="20"
     inkscape:snap-path-clip="true"
     inkscape:snap-path-mask="true"
     inkscape:pagecheckerboard="0" />
  <metadata
     id="metadata5">
    <rdf:RDF>
      <cc:Work
         rdf:about="">
        <dc:format>image/svg+xml</dc:format>
        <dc:type
           rdf:resource="http://purl.org/dc/dcmitype/StillImage" />
      </cc:Work>
    </rdf:RDF>
  </metadata>
  <g
     inkscape:label="Layer 1"
     inkscape:groupmode="layer"
     id="layer1"
     transform="translate(-73.271896,-16.813471)">
    <path
       style="fill:#ffffff;fill-opacity:1;stroke:none;stroke-width:0.264583px;stroke-linecap:butt;stroke-linejoin:miter;stroke-opacity:1"
       d="m 91.230325,185.3871 c 0,0 32.278755,-60.19551 30.533955,-143.945801 -12.64978,14.39458 -22.132995,22.45603 -24.863355,22.68237 0.64605,-3.48959 1.30859,-4.36199 1.30859,-4.36199 l 28.352955,-29.22536 c 0,0 6.10679,-6.10679 7.85159,-4.362 1.7448,1.7448 4.36199,34.45976 -6.10679,90.293281 4.79819,-8.28779 54.52493,-73.281501 91.16567,-94.219071 3.4896,-1.7448 6.97919,1.3086 2.181,17.44797 -4.79819,16.13938 -30.97016,83.314091 -23.55477,101.634461 5.67059,13.52219 17.44798,8.72399 25.73577,4.362 6.10679,-3.4896 7.85159,2.61719 7.85159,2.61719 0,0 -19.99057,18.80968 -43.18374,20.93757 -4.16801,0.40985 -12.64979,-10.03258 -9.16019,-34.89594 3.4896,-24.86337 24.86337,-92.474281 24.86337,-92.474281 0,0 0.84285,-3.45157 -1.7448,-1.3086 -3.32576,2.75424 -44.92854,34.45976 -78.51589,100.762061 -3.00467,5.6706 -15.26698,31.40636 -29.661565,46.23714 -1.32559,1.34749 -1.30859,0.4362 -3.05339,-2.181 z"
       id="path886"
       sodipodi:nodetypes="cccccsccsccccscsccc"
       inkscape:export-xdpi="200"
       inkscape:export-ydpi="200" />
  </g>
</svg>
